<?xml version="1.0" encoding="UTF-8" standalone="no"?>
<!DOCTYPE svg PUBLIC "-//W3C//DTD SVG 1.1//EN" "http://www.w3.org/Graphics/SVG/1.1/DTD/svg11.dtd">
<svg width="100%" height="100%" viewBox="0 0 148 60" version="1.1" xmlns="http://www.w3.org/2000/svg" xmlns:xlink="http://www.w3.org/1999/xlink" xml:space="preserve" xmlns:serif="http://www.serif.com/" style="fill-rule:evenodd;clip-rule:evenodd;stroke-linejoin:round;stroke-miterlimit:2;">
    <g transform="matrix(1,0,0,1,-1044.78,-199.488)">
        <g transform="matrix(0.504991,0,0,0.504991,490.794,72.3659)">
            <path d="M1102.1,296.396L1118.34,280.155L1102.1,263.913L1097.03,268.955L1108.6,280.155L1097.03,291.354L1102.1,296.396Z" style="fill:rgb(18,76,183);fill-rule:nonzero;"/>
            <path d="M1135.74,301.472L1135.74,264.353C1135.74,263.428 1135.77,262.407 1135.84,261.291C1135.9,260.174 1136.1,259.063 1136.41,257.958C1136.73,256.852 1137.3,255.849 1138.14,254.946C1139.17,253.796 1140.3,253.001 1141.5,252.561C1142.71,252.121 1143.9,251.873 1145.07,251.816C1146.25,251.76 1147.27,251.732 1148.15,251.732L1152.72,251.732L1152.72,258.364L1148.49,258.364C1146.93,258.364 1145.78,258.753 1145.02,259.531C1144.27,260.309 1143.89,261.33 1143.89,262.593L1143.89,301.472L1135.74,301.472ZM1129.85,271.323L1129.85,264.928L1152.72,264.928L1152.72,271.323L1129.85,271.323Z" style="fill-rule:nonzero;"/>
            <path d="M1171.84,302.521C1169.13,302.521 1166.9,302.069 1165.14,301.167C1163.38,300.265 1161.98,299.114 1160.94,297.716C1159.91,296.317 1159.14,294.828 1158.64,293.249C1158.15,291.67 1157.83,290.176 1157.68,288.766C1157.53,287.356 1157.46,286.211 1157.46,285.332L1157.46,264.928L1165.71,264.928L1165.71,282.523C1165.71,283.651 1165.79,284.92 1165.95,286.33C1166.11,287.74 1166.48,289.093 1167.05,290.39C1167.63,291.687 1168.48,292.753 1169.62,293.588C1170.76,294.422 1172.3,294.84 1174.24,294.84C1175.28,294.84 1176.31,294.67 1177.32,294.332C1178.34,293.994 1179.25,293.413 1180.08,292.59C1180.9,291.766 1181.56,290.633 1182.06,289.189C1182.55,287.745 1182.8,285.918 1182.8,283.707L1187.64,285.771C1187.64,288.884 1187.04,291.704 1185.83,294.231C1184.62,296.757 1182.85,298.77 1180.5,300.27C1178.15,301.771 1175.27,302.521 1171.84,302.521ZM1183.78,301.472L1183.78,290.136L1182.8,290.136L1182.8,264.928L1190.99,264.928L1190.99,301.472L1183.78,301.472Z" style="fill-rule:nonzero;"/>
            <path d="M1195.05,317.713L1195.05,310.066L1196.78,310.066C1198.76,310.066 1200.17,309.604 1201.01,308.679C1201.84,307.754 1202.26,306.389 1202.26,304.585L1202.26,264.928L1210.38,264.928L1210.38,308.239C1210.38,311.194 1209.52,313.512 1207.79,315.192C1206.06,316.873 1203.67,317.713 1200.6,317.713L1195.05,317.713ZM1202.26,259.379L1202.26,251.901L1210.38,251.901L1210.38,259.379L1202.26,259.379Z" style="fill-rule:nonzero;"/>
            <path d="M1220.66,259.379L1220.66,251.901L1228.82,251.901L1228.82,259.379L1220.66,259.379ZM1220.66,301.472L1220.66,264.928L1228.82,264.928L1228.82,301.472L1220.66,301.472Z" style="fill-rule:nonzero;"/>
            <path d="M1264.25,301.472L1264.25,283.877C1264.25,282.726 1264.17,281.452 1264.01,280.053C1263.85,278.654 1263.49,277.307 1262.91,276.01C1262.34,274.712 1261.48,273.647 1260.34,272.812C1259.2,271.977 1257.66,271.56 1255.72,271.56C1254.68,271.56 1253.66,271.729 1252.64,272.068C1251.62,272.406 1250.71,272.987 1249.88,273.81C1249.06,274.634 1248.4,275.761 1247.9,277.194C1247.41,278.626 1247.16,280.459 1247.16,282.692L1242.32,280.628C1242.32,277.515 1242.92,274.696 1244.13,272.169C1245.34,269.643 1247.11,267.629 1249.46,266.129C1251.81,264.629 1254.69,263.879 1258.12,263.879C1260.83,263.879 1263.06,264.33 1264.82,265.233C1266.58,266.135 1267.98,267.285 1269.02,268.684C1270.06,270.082 1270.82,271.571 1271.32,273.15C1271.82,274.729 1272.14,276.224 1272.28,277.634C1272.43,279.044 1272.5,280.188 1272.5,281.068L1272.5,301.472L1264.25,301.472ZM1238.9,301.472L1238.9,264.928L1246.18,264.928L1246.18,276.263L1247.16,276.263L1247.16,301.472L1238.9,301.472Z" style="fill-rule:nonzero;"/>
            <path d="M1144.19,370.16C1140.79,370.16 1137.88,369.309 1135.46,367.605C1133.05,365.902 1131.2,363.596 1129.91,360.686C1128.63,357.776 1127.99,354.494 1127.99,350.839C1127.99,347.208 1128.62,343.937 1129.9,341.027C1131.17,338.117 1133.01,335.816 1135.4,334.124C1137.79,332.432 1140.65,331.586 1143.99,331.586C1147.42,331.586 1150.31,332.421 1152.65,334.09C1155,335.759 1156.78,338.043 1157.98,340.942C1159.19,343.841 1159.79,347.14 1159.79,350.839C1159.79,354.471 1159.19,357.748 1158,360.669C1156.8,363.59 1155.04,365.902 1152.72,367.605C1150.4,369.309 1147.56,370.16 1144.19,370.16ZM1144.7,365.524C1147.3,365.524 1149.44,364.893 1151.13,363.63C1152.82,362.366 1154.09,360.624 1154.92,358.402C1155.76,356.18 1156.17,353.659 1156.17,350.839C1156.17,347.974 1155.76,345.442 1154.92,343.243C1154.09,341.044 1152.83,339.324 1151.15,338.083C1149.47,336.842 1147.35,336.222 1144.8,336.222C1142.19,336.222 1140.02,336.865 1138.31,338.151C1136.59,339.436 1135.32,341.185 1134.5,343.395C1133.68,345.606 1133.27,348.087 1133.27,350.839C1133.27,353.614 1133.69,356.112 1134.53,358.334C1135.38,360.556 1136.65,362.31 1138.34,363.596C1140.03,364.882 1142.15,365.524 1144.7,365.524ZM1156.17,369.145L1156.17,341.636L1155.63,341.636L1155.63,320.42L1160.64,320.42L1160.64,369.145L1156.17,369.145Z" style="fill-rule:nonzero;"/>
            <path d="M1185.37,370.16C1181.74,370.16 1178.64,369.337 1176.07,367.69C1173.5,366.043 1171.52,363.765 1170.15,360.855C1168.77,357.945 1168.08,354.606 1168.08,350.839C1168.08,347.005 1168.78,343.643 1170.18,340.756C1171.58,337.869 1173.57,335.618 1176.15,334.006C1178.74,332.393 1181.81,331.586 1185.37,331.586C1189.03,331.586 1192.15,332.404 1194.73,334.039C1197.31,335.675 1199.29,337.942 1200.65,340.841C1202.02,343.739 1202.7,347.072 1202.7,350.839C1202.7,354.674 1202.01,358.041 1200.63,360.94C1199.26,363.838 1197.27,366.1 1194.68,367.724C1192.08,369.348 1188.98,370.16 1185.37,370.16ZM1185.37,365.389C1189.43,365.389 1192.46,364.041 1194.44,361.346C1196.43,358.65 1197.42,355.148 1197.42,350.839C1197.42,346.418 1196.42,342.899 1194.42,340.282C1192.43,337.666 1189.41,336.357 1185.37,336.357C1182.64,336.357 1180.39,336.972 1178.62,338.201C1176.85,339.431 1175.53,341.134 1174.66,343.311C1173.8,345.488 1173.36,347.997 1173.36,350.839C1173.36,355.238 1174.38,358.763 1176.41,361.413C1178.44,364.064 1181.43,365.389 1185.37,365.389Z" style="fill-rule:nonzero;"/>
            <path d="M1253.72,369.145L1253.76,345.155C1253.76,342.335 1252.97,340.119 1251.41,338.506C1249.84,336.893 1247.85,336.087 1245.43,336.087C1244.06,336.087 1242.71,336.402 1241.41,337.034C1240.1,337.666 1239.02,338.681 1238.17,340.079C1237.33,341.478 1236.91,343.305 1236.91,345.561L1233.96,344.715C1233.89,342.098 1234.41,339.809 1235.5,337.846C1236.6,335.884 1238.11,334.355 1240.04,333.261C1241.96,332.167 1244.15,331.62 1246.58,331.62C1250.26,331.62 1253.2,332.754 1255.41,335.021C1257.63,337.288 1258.73,340.35 1258.73,344.207L1258.7,369.145L1253.72,369.145ZM1210.11,369.145L1210.11,332.601L1214.57,332.601L1214.57,341.602L1215.12,341.602L1215.12,369.145L1210.11,369.145ZM1231.97,369.145L1232,345.493C1232,342.583 1231.23,340.288 1229.68,338.607C1228.14,336.927 1226.1,336.087 1223.58,336.087C1221.05,336.087 1219.01,336.949 1217.45,338.675C1215.89,340.401 1215.12,342.696 1215.12,345.561L1212.14,343.937C1212.14,341.591 1212.69,339.487 1213.8,337.626C1214.9,335.765 1216.41,334.299 1218.33,333.227C1220.25,332.156 1222.42,331.62 1224.86,331.62C1227.18,331.62 1229.25,332.116 1231.07,333.109C1232.89,334.101 1234.31,335.545 1235.35,337.44C1236.39,339.335 1236.91,341.636 1236.91,344.343L1236.87,369.145L1231.97,369.145Z" style="fill-rule:nonzero;"/>
            <path d="M1277.98,370.16C1275.23,370.16 1272.93,369.664 1271.07,368.671C1269.2,367.679 1267.81,366.359 1266.89,364.712C1265.96,363.066 1265.5,361.272 1265.5,359.332C1265.5,357.347 1265.9,355.65 1266.7,354.24C1267.5,352.83 1268.6,351.674 1269.98,350.772C1271.37,349.869 1272.98,349.181 1274.8,348.708C1276.65,348.256 1278.7,347.856 1280.94,347.506C1283.19,347.157 1285.39,346.852 1287.54,346.593C1289.7,346.333 1291.59,346.08 1293.21,345.832L1291.45,346.914C1291.52,343.305 1290.82,340.632 1289.35,338.895C1287.89,337.158 1285.34,336.29 1281.71,336.29C1279.2,336.29 1277.09,336.854 1275.36,337.981C1273.64,339.109 1272.42,340.891 1271.72,343.328L1266.89,341.906C1267.72,338.636 1269.4,336.098 1271.93,334.293C1274.45,332.489 1277.74,331.586 1281.77,331.586C1285.11,331.586 1287.95,332.212 1290.28,333.464C1292.62,334.716 1294.27,336.526 1295.24,338.895C1295.69,339.955 1295.99,341.139 1296.12,342.448C1296.26,343.756 1296.32,345.087 1296.32,346.441L1296.32,369.145L1291.89,369.145L1291.89,359.975L1293.18,360.517C1291.94,363.652 1290.01,366.043 1287.39,367.69C1284.77,369.337 1281.64,370.16 1277.98,370.16ZM1278.56,365.863C1280.88,365.863 1282.91,365.445 1284.65,364.611C1286.39,363.776 1287.79,362.631 1288.85,361.176C1289.91,359.721 1290.59,358.08 1290.91,356.253C1291.18,355.08 1291.33,353.789 1291.35,352.379C1291.37,350.969 1291.38,349.914 1291.38,349.215L1293.28,350.196C1291.59,350.422 1289.75,350.648 1287.78,350.873C1285.81,351.099 1283.87,351.358 1281.96,351.651C1280.05,351.945 1278.33,352.294 1276.8,352.7C1275.76,352.994 1274.76,353.405 1273.79,353.935C1272.82,354.465 1272.02,355.17 1271.4,356.05C1270.78,356.93 1270.47,358.024 1270.47,359.332C1270.47,360.393 1270.74,361.419 1271.27,362.411C1271.8,363.404 1272.65,364.227 1273.84,364.882C1275.02,365.536 1276.6,365.863 1278.56,365.863Z" style="fill-rule:nonzero;"/>
            <path d="M1305.8,325.665L1305.8,320.082L1310.77,320.082L1310.77,325.665L1305.8,325.665ZM1305.8,369.145L1305.8,332.601L1310.77,332.601L1310.77,369.145L1305.8,369.145Z" style="fill-rule:nonzero;"/>
            <path d="M1347.32,369.145L1347.32,350.501C1347.32,348.471 1347.12,346.604 1346.74,344.901C1346.36,343.198 1345.74,341.709 1344.9,340.435C1344.05,339.16 1342.96,338.173 1341.61,337.474C1340.27,336.775 1338.64,336.425 1336.73,336.425C1334.96,336.425 1333.41,336.729 1332.07,337.339C1330.73,337.948 1329.6,338.822 1328.69,339.961C1327.78,341.1 1327.08,342.482 1326.61,344.106C1326.13,345.73 1325.9,347.58 1325.9,349.655L1322.38,348.877C1322.38,345.132 1323.03,341.985 1324.34,339.436C1325.65,336.887 1327.45,334.959 1329.75,333.65C1332.06,332.342 1334.69,331.688 1337.67,331.688C1339.86,331.688 1341.77,332.026 1343.41,332.703C1345.04,333.38 1346.43,334.293 1347.57,335.444C1348.71,336.594 1349.63,337.908 1350.33,339.386C1351.03,340.863 1351.53,342.431 1351.85,344.089C1352.16,345.747 1352.32,347.399 1352.32,349.046L1352.32,369.145L1347.32,369.145ZM1320.89,369.145L1320.89,332.601L1325.39,332.601L1325.39,341.602L1325.9,341.602L1325.9,369.145L1320.89,369.145Z" style="fill-rule:nonzero;"/>
            <path d="M1374.76,370.126C1370.47,370.126 1366.95,369.201 1364.18,367.352C1361.42,365.502 1359.72,362.93 1359.09,359.637L1364.17,358.791C1364.71,360.866 1365.94,362.519 1367.87,363.748C1369.8,364.977 1372.19,365.592 1375.03,365.592C1377.8,365.592 1379.99,365.011 1381.59,363.85C1383.19,362.688 1384,361.103 1384,359.095C1384,357.968 1383.74,357.048 1383.23,356.338C1382.73,355.627 1381.69,354.967 1380.14,354.358C1378.58,353.749 1376.26,353.027 1373.17,352.193C1369.85,351.29 1367.26,350.388 1365.38,349.486C1363.51,348.584 1362.18,347.54 1361.39,346.356C1360.6,345.172 1360.21,343.722 1360.21,342.008C1360.21,339.933 1360.79,338.111 1361.97,336.543C1363.14,334.976 1364.76,333.757 1366.84,332.889C1368.91,332.021 1371.33,331.586 1374.08,331.586C1376.83,331.586 1379.3,332.032 1381.47,332.923C1383.65,333.814 1385.4,335.06 1386.74,336.662C1388.07,338.263 1388.86,340.124 1389.1,342.245L1384.03,343.158C1383.69,341.015 1382.62,339.318 1380.83,338.066C1379.04,336.814 1376.77,336.165 1374.01,336.12C1371.42,336.053 1369.31,336.543 1367.68,337.592C1366.06,338.641 1365.25,340.034 1365.25,341.771C1365.25,342.741 1365.54,343.57 1366.13,344.258C1366.71,344.946 1367.78,345.595 1369.33,346.204C1370.87,346.813 1373.08,347.478 1375.94,348.2C1379.3,349.057 1381.94,349.96 1383.86,350.907C1385.78,351.854 1387.14,352.971 1387.95,354.257C1388.77,355.543 1389.17,357.133 1389.17,359.028C1389.17,362.479 1387.89,365.192 1385.33,367.166C1382.77,369.139 1379.25,370.126 1374.76,370.126Z" style="fill-rule:nonzero;"/>
        </g>
    </g>
</svg>
