<?xml version="1.0" standalone="no"?>
<!DOCTYPE svg PUBLIC "-//W3C//DTD SVG 20010904//EN"
 "http://www.w3.org/TR/2001/REC-SVG-20010904/DTD/svg10.dtd">
<svg version="1.0" xmlns="http://www.w3.org/2000/svg"
 width="700.000000pt" height="700.000000pt" viewBox="0 0 700.000000 700.000000"
 preserveAspectRatio="xMidYMid meet">
<metadata>
Created by potrace 1.14, written by Peter Selinger 2001-2017
</metadata>
<g transform="translate(0.000000,700.000000) scale(0.100000,-0.100000)"
fill="#000000" stroke="none">
<path d="M2190 5684 l-395 -394 100 -96 c94 -90 394 -381 754 -730 86 -83 188
-182 226 -219 39 -37 178 -172 310 -300 132 -128 280 -271 329 -318 75 -73 87
-88 77 -101 -7 -9 -54 -55 -103 -103 -50 -48 -121 -117 -158 -153 -66 -65
-463 -449 -615 -595 -201 -195 -594 -575 -749 -726 l-170 -166 394 -392 c217
-215 397 -391 400 -391 3 0 576 571 1273 1268 l1268 1268 -1254 1255 c-690
689 -1263 1262 -1273 1271 -18 16 -35 1 -414 -378z"/>
</g>
</svg>
