<?xml version="1.0" standalone="no"?>
<!DOCTYPE svg PUBLIC "-//W3C//DTD SVG 20010904//EN"
 "http://www.w3.org/TR/2001/REC-SVG-20010904/DTD/svg10.dtd">
<svg version="1.0" xmlns="http://www.w3.org/2000/svg"
 width="700.000000pt" height="700.000000pt" viewBox="0 0 700.000000 700.000000"
 preserveAspectRatio="xMidYMid meet">
<metadata>
Created by potrace 1.14, written by Peter Selinger 2001-2017
</metadata>
<g transform="translate(0.000000,700.000000) scale(0.100000,-0.100000)"
fill="#000000" stroke="none">
<path d="M3435 6609 c-4 -6 -5 -12 -2 -15 2 -3 7 2 10 11 7 17 1 20 -8 4z"/>
<path d="M3675 6569 c-4 -6 -5 -12 -2 -15 2 -3 7 2 10 11 7 17 1 20 -8 4z"/>
<path d="M3436 6532 c-4 -4 -19 -7 -34 -8 -15 -1 -45 -3 -67 -5 -22 -1 -46 0
-53 5 -7 4 -12 3 -12 -1 0 -5 -41 -14 -92 -21 -112 -15 -262 -53 -370 -92 -44
-16 -86 -27 -92 -23 -6 3 -8 3 -4 -2 10 -11 -71 -47 -85 -38 -5 3 -7 1 -4 -4
6 -10 -43 -37 -59 -33 -4 1 -10 -2 -13 -7 -13 -19 -62 -43 -74 -37 -7 4 -9 4
-5 0 6 -7 -168 -131 -184 -131 -3 0 -10 -4 -15 -9 -5 -6 -2 -6 7 -1 20 11 17
8 -70 -66 -41 -35 -81 -71 -88 -81 -7 -10 -18 -15 -24 -12 -6 4 -8 3 -5 -3 3
-5 -6 -23 -21 -39 -55 -61 -131 -162 -172 -232 -24 -40 -47 -72 -52 -72 -5 0
-7 -4 -4 -8 7 -12 -49 -123 -59 -115 -4 5 -5 2 -1 -4 4 -7 -4 -43 -17 -80 -25
-69 -52 -173 -61 -228 -2 -16 -7 -48 -11 -71 -3 -22 -8 -91 -9 -152 -2 -60 -7
-115 -10 -121 -4 -6 -3 -11 1 -11 10 0 9 -92 -1 -108 -4 -7 -3 -12 2 -12 10 0
9 -50 -2 -68 -4 -7 -3 -12 1 -12 12 0 14 -38 2 -45 -5 -4 -6 -12 -2 -18 11
-18 9 -147 -2 -147 -7 0 -7 -3 0 -8 12 -8 13 -32 2 -49 -4 -6 -4 -14 1 -17 10
-6 8 -88 -2 -104 -4 -7 -3 -12 2 -12 5 0 9 -7 9 -15 0 -8 -5 -15 -10 -15 -6 0
-6 -5 0 -12 7 -10 10 -173 3 -173 0 0 -3 -18 -5 -40 -4 -48 -40 -135 -55 -135
-6 0 -9 -4 -6 -9 9 -13 -75 -86 -132 -115 -38 -19 -52 -22 -62 -13 -10 9 -11
9 -5 -2 6 -11 3 -13 -13 -9 -12 4 -20 2 -16 -3 4 -8 -36 -12 -138 -13 -14 -1
-24 -4 -21 -8 4 -7 -15 -12 -44 -11 -7 1 -11 -3 -8 -7 9 -14 -27 -21 -44 -8
-14 12 -14 11 -2 -4 7 -10 9 -18 4 -18 -21 0 -104 -94 -129 -146 -15 -30 -29
-76 -32 -102 -3 -26 -10 -50 -16 -54 -8 -6 -8 -8 0 -8 6 0 12 -11 12 -25 0
-14 -6 -25 -12 -25 -8 0 -8 -2 0 -8 13 -8 13 -131 0 -151 -6 -10 -6 -12 2 -7
7 4 12 2 12 -3 0 -6 -6 -11 -12 -11 -9 0 -9 -3 -2 -8 14 -10 15 -114 0 -105
-8 5 -8 3 0 -8 15 -20 16 -61 1 -52 -9 5 -9 3 -1 -8 14 -18 14 -52 0 -61 -8
-6 -8 -8 0 -8 13 0 14 -68 1 -87 -4 -6 -3 -14 2 -17 4 -3 9 -17 8 -31 0 -15
-4 -22 -11 -18 -8 5 -8 3 0 -8 6 -8 11 -23 11 -34 0 -11 -5 -26 -11 -34 -8
-11 -8 -13 0 -8 15 9 15 -113 0 -132 -8 -11 -8 -13 0 -8 7 4 12 -2 12 -18 0
-14 -5 -22 -11 -18 -6 4 -7 1 -1 -8 14 -21 14 -150 0 -142 -6 4 -5 -1 3 -11
12 -14 12 -19 2 -26 -11 -6 -11 -9 0 -13 12 -4 11 -7 -1 -16 -8 -6 -10 -11 -4
-11 13 0 14 -68 1 -87 -4 -6 -3 -14 2 -17 4 -3 9 -17 9 -31 0 -15 -5 -22 -12
-18 -8 5 -8 3 0 -8 6 -8 11 -23 11 -34 0 -11 -5 -26 -11 -34 -7 -10 -8 -13 0
-8 7 4 11 -24 10 -93 0 -66 -3 -97 -10 -92 -8 4 -7 1 0 -9 15 -20 15 -59 1
-59 -8 0 -7 -4 2 -9 13 -8 13 -12 0 -27 -8 -10 -9 -15 -2 -11 8 5 11 -1 9 -20
-1 -16 -8 -27 -15 -25 -7 1 -10 -2 -6 -8 3 -6 10 -8 14 -6 4 3 7 -33 7 -79 0
-52 -3 -82 -9 -78 -6 4 -7 1 -1 -8 14 -22 14 -90 0 -82 -6 4 -5 -1 3 -11 13
-15 13 -19 0 -27 -8 -5 -9 -9 -3 -9 14 0 14 -113 0 -122 -8 -6 -8 -8 1 -8 6 0
11 -15 11 -35 0 -20 -4 -32 -10 -29 -5 3 -4 -4 4 -15 11 -18 11 -23 -2 -31 -8
-5 -10 -10 -4 -10 7 0 11 -42 12 -120 0 -67 6 -136 12 -155 6 -19 8 -40 4 -46
-4 -7 -3 -9 3 -6 6 4 16 -6 23 -22 6 -16 24 -41 40 -56 16 -16 26 -33 23 -39
-3 -6 -3 -8 2 -4 4 4 24 -5 44 -20 39 -31 128 -68 150 -63 7 1 10 -2 7 -8 -4
-5 -1 -13 5 -17 8 -4 9 -3 5 4 -6 11 12 17 37 13 26 -4 4329 0 4361 4 24 3 45
1 55 -7 14 -12 14 -11 2 5 -12 15 -11 17 2 17 22 0 96 41 121 67 11 13 27 23
34 23 7 0 10 4 7 10 -3 5 -2 10 3 10 5 0 15 11 22 25 7 13 18 22 23 18 6 -3 7
-1 4 4 -4 6 2 31 13 56 15 33 21 71 23 139 1 51 7 96 12 100 6 5 6 8 -2 8 -14
0 -11 23 7 45 10 12 10 15 1 13 -15 -4 -24 29 -10 38 5 3 6 11 2 17 -11 18
-12 36 -2 43 5 3 6 11 2 17 -11 17 -10 31 2 39 7 5 6 8 -1 8 -12 0 -13 48 -2
66 4 6 4 14 1 18 -10 10 -11 66 -1 72 5 3 5 11 1 17 -11 17 -11 50 -1 64 5 6
5 14 -2 18 -5 3 -10 11 -10 16 0 6 6 7 13 3 9 -6 9 -5 0 7 -16 20 -17 31 -1
40 7 5 8 9 2 9 -11 0 -13 64 -2 75 4 4 3 17 -2 30 -5 14 -5 26 3 34 7 7 7 11
1 11 -12 0 -12 59 -1 77 4 6 3 14 -3 18 -5 3 -10 11 -10 16 0 6 5 7 12 3 7 -5
8 -3 2 7 -13 21 -14 39 -1 39 8 0 8 3 2 8 -13 9 -15 53 -2 45 6 -4 7 -1 1 8
-12 20 -14 39 -3 39 6 0 7 6 2 13 -12 20 -12 37 0 37 8 0 8 3 2 8 -13 9 -14
63 -1 55 5 -4 6 -1 0 8 -13 21 -14 39 -2 39 6 0 4 7 -3 17 -16 19 -16 23 3 34
9 6 9 9 1 9 -11 0 -11 7 -3 45 1 6 1 12 0 15 -6 15 -4 142 2 146 5 3 5 11 1
17 -11 18 -12 37 -2 37 6 0 5 8 -1 20 -8 15 -8 20 1 20 7 0 8 4 2 13 -11 14
-11 67 0 84 4 6 3 14 -3 18 -5 3 -10 11 -10 16 0 6 6 7 13 3 7 -5 6 0 -3 11
-17 21 -17 24 2 36 10 7 10 9 0 9 -9 0 -10 5 -2 19 7 14 7 22 0 26 -8 5 -8 11
-1 19 6 7 8 16 4 20 -11 11 -10 125 1 118 5 -3 5 1 0 9 -13 21 -14 39 -2 39 7
0 7 4 0 13 -15 18 -15 29 0 38 7 5 8 9 3 9 -16 0 -12 124 4 144 12 14 12 17 1
14 -16 -4 -20 24 -5 34 7 5 6 8 -1 8 -12 0 -13 38 -1 56 3 6 3 14 -1 18 -3 4
-7 26 -8 49 -3 81 -9 137 -15 137 -4 0 -10 12 -14 27 -14 57 -101 151 -168
182 -20 9 -35 19 -33 22 2 2 -5 5 -17 6 -71 5 -158 15 -197 24 -59 13 -141 61
-179 105 -39 44 -74 111 -65 126 4 6 3 8 -4 4 -12 -7 -13 -2 -15 82 -1 28 -4
52 -7 52 -8 0 -5 44 3 57 4 5 4 13 0 17 -9 9 -9 66 0 66 5 0 5 5 1 11 -8 13
-12 119 -4 119 3 0 5 11 5 25 0 14 -2 25 -5 25 -3 0 -5 41 -5 90 0 50 4 90 8
90 5 0 5 5 2 11 -9 13 -12 79 -5 79 3 0 5 11 5 25 0 14 -2 25 -5 25 -3 0 -5
27 -5 60 0 33 2 60 5 60 3 0 5 11 5 25 0 14 -2 25 -5 25 -8 0 -5 44 3 57 4 5
4 13 0 16 -3 4 -7 37 -9 74 -4 89 -12 143 -31 228 -8 39 -16 78 -16 88 -1 9
-6 17 -11 17 -5 0 -7 3 -4 6 4 3 -7 37 -22 75 -16 38 -26 69 -22 69 4 0 2 4
-3 8 -6 4 -21 32 -35 62 -14 30 -28 57 -32 58 -5 2 -8 8 -8 13 0 6 -11 26 -25
46 -13 20 -22 40 -19 45 3 4 1 8 -4 8 -5 0 -24 21 -42 48 -18 26 -40 54 -47
62 -69 78 -98 115 -95 122 1 5 -1 7 -6 4 -5 -3 -20 7 -34 22 -13 15 -46 45
-72 67 -27 22 -56 47 -66 55 -21 18 -110 81 -162 114 -20 14 -69 42 -110 63
-40 21 -76 42 -79 46 -3 5 -9 8 -13 7 -16 -3 -74 25 -69 33 3 6 1 7 -5 3 -7
-4 -26 0 -44 8 -18 8 -52 20 -75 27 -24 7 -43 15 -43 18 0 3 -14 7 -32 8 -17
1 -34 6 -37 10 -3 5 -10 8 -16 8 -36 2 -114 18 -111 24 2 3 -8 6 -22 7 -15 0
-58 4 -97 9 -38 5 -78 10 -87 11 -10 1 -19 2 -20 3 -2 2 -46 3 -98 5 -52 1
-100 5 -106 9 -6 3 -14 3 -18 -1z m-32 -653 c8 13 118 11 135 -3 12 -8 13 -8
7 2 -6 10 -1 11 21 7 15 -3 51 -8 78 -10 52 -5 188 -37 240 -57 55 -21 160
-72 166 -81 3 -5 10 -9 15 -10 5 -1 8 -6 6 -10 -1 -5 2 -6 8 -2 13 8 93 -49
83 -59 -4 -4 -1 -5 7 -1 16 6 167 -129 163 -145 -2 -6 1 -10 5 -10 13 0 77
-90 116 -163 39 -73 68 -158 87 -251 13 -71 18 -497 5 -489 -5 4 -6 0 -1 -7
14 -22 9 -598 -5 -650 -19 -69 -39 -103 -57 -96 -13 5 -13 4 -4 -8 19 -23 -84
-109 -161 -135 -35 -11 -72 -20 -83 -20 -11 0 -110 0 -220 0 -110 -1 -209 -1
-220 -1 -11 0 -58 1 -104 1 -46 0 -88 2 -92 5 -5 3 -9 1 -9 -3 0 -5 -15 -8
-32 -6 -18 2 -37 4 -43 4 -54 -1 -113 -1 -125 0 -8 0 -28 0 -45 0 -16 -1 -37
-1 -45 -1 -8 1 -40 1 -70 0 -30 0 -62 0 -70 1 -8 0 -28 0 -45 -1 -16 0 -60 1
-98 2 -37 2 -67 1 -67 -2 0 -3 -39 -4 -87 -3 -49 1 -88 2 -88 3 0 1 -22 3 -50
6 -70 6 -75 7 -75 14 0 3 -10 6 -22 7 -11 1 -24 6 -27 11 -3 5 -16 12 -27 16
-31 10 -117 104 -110 121 3 8 0 14 -7 12 -7 -1 -12 8 -11 20 0 12 -3 20 -7 18
-8 -5 -19 19 -19 41 0 9 5 12 12 8 7 -4 8 -3 4 5 -4 6 -12 9 -17 6 -8 -5 -16
338 -9 370 1 6 1 30 0 55 -1 25 -1 52 -1 60 0 8 0 89 0 180 -1 91 0 176 0 190
1 14 3 77 5 140 6 180 3 164 24 149 15 -12 16 -12 4 2 -13 18 -6 79 10 79 5 0
6 5 3 10 -4 6 -1 17 5 25 7 8 9 15 6 15 -4 0 -1 10 6 23 7 12 12 25 13 28 1
15 49 99 57 99 5 0 7 4 4 9 -3 5 6 21 19 35 14 15 25 31 25 35 0 14 36 41 45
34 4 -5 5 -2 1 5 -8 13 67 95 78 85 3 -4 6 0 6 8 0 18 37 42 52 33 7 -4 8 -3
4 4 -19 31 338 219 374 197 5 -3 10 0 12 5 2 6 21 11 43 13 22 1 43 6 46 10 3
4 29 9 57 10 29 1 52 6 52 10 0 4 9 3 19 -3 12 -6 22 -6 25 -1z m-141 -2892
c-3 -6 -2 -7 4 -4 12 7 249 -229 245 -244 -1 -6 1 -8 6 -5 5 3 28 -15 51 -39
24 -25 47 -45 52 -45 5 0 9 -4 9 -9 0 -5 23 -31 50 -58 111 -106 195 -196 192
-205 -1 -5 2 -7 7 -4 12 8 43 -23 35 -35 -3 -5 0 -8 8 -7 7 2 12 -4 10 -12 -2
-8 0 -12 4 -7 11 10 65 -44 57 -57 -3 -6 -2 -8 2 -3 9 7 75 -50 75 -65 0 -15
-72 -78 -82 -72 -7 4 -8 2 -4 -5 10 -15 -370 -395 -386 -385 -7 4 -8 3 -4 -5
10 -15 -340 -365 -355 -355 -7 4 -9 3 -5 -4 3 -6 -10 -27 -30 -48 l-37 -36
-51 51 c-28 28 -72 72 -98 97 -27 25 -45 50 -42 55 3 5 2 9 -3 8 -20 -4 -24 2
-12 19 11 14 11 15 0 5 -15 -13 -44 -6 -35 8 3 5 -2 9 -11 9 -11 0 -15 5 -11
16 3 8 2 12 -4 9 -6 -3 -10 -2 -10 2 0 12 113 119 122 116 5 -2 8 2 8 8 0 14
62 65 75 61 5 -2 6 0 2 4 -10 11 114 135 127 127 6 -3 8 -3 4 2 -4 4 19 33 51
64 32 31 96 92 142 137 46 44 90 89 98 98 13 16 3 28 -105 133 -65 64 -117
121 -116 127 2 6 0 8 -4 4 -12 -12 -123 102 -117 121 4 12 3 13 -5 3 -12 -18
-248 210 -244 236 2 13 1 14 -6 4 -7 -10 -11 -10 -22 3 -10 12 -10 18 0 30 11
13 15 13 23 3 6 -10 7 -9 4 4 -7 20 17 43 34 32 8 -4 9 -3 5 5 -5 7 32 52 95
115 l103 105 53 -51 c28 -28 49 -56 46 -61z"/>
<path d="M4146 5598 c3 -5 10 -6 15 -3 13 9 11 12 -6 12 -8 0 -12 -4 -9 -9z"/>
<path d="M4356 5367 c3 -10 9 -15 12 -12 3 3 0 11 -7 18 -10 9 -11 8 -5 -6z"/>
<path d="M4467 5079 c7 -7 15 -10 18 -7 3 3 -2 9 -12 12 -14 6 -15 5 -6 -5z"/>
<path d="M2430 4976 c0 -2 8 -10 18 -17 15 -13 16 -12 3 4 -13 16 -21 21 -21
13z"/>
<path d="M4349 3803 c-13 -16 -12 -17 4 -4 16 13 21 21 13 21 -2 0 -10 -8 -17
-17z"/>
<path d="M3179 3028 c-5 -18 -6 -38 -1 -34 7 8 12 36 6 36 -2 0 -4 -1 -5 -2z"/>
<path d="M2995 2871 c-3 -5 -2 -12 3 -15 5 -3 9 1 9 9 0 17 -3 19 -12 6z"/>
<path d="M3395 2720 c-3 -5 -1 -10 4 -10 6 0 11 5 11 10 0 6 -2 10 -4 10 -3 0
-8 -4 -11 -10z"/>
<path d="M3635 2249 c-4 -6 -5 -12 -2 -15 2 -3 7 2 10 11 7 17 1 20 -8 4z"/>
<path d="M2966 1622 c-3 -5 1 -9 9 -9 8 0 12 4 9 9 -3 4 -7 8 -9 8 -2 0 -6 -4
-9 -8z"/>
<path d="M3007 1599 c7 -7 15 -10 18 -7 3 3 -2 9 -12 12 -14 6 -15 5 -6 -5z"/>
<path d="M2999 1513 c-13 -17 -13 -17 6 -3 11 8 22 16 24 17 2 2 0 3 -6 3 -6
0 -17 -8 -24 -17z"/>
<path d="M3013 1471 c0 -11 5 -18 9 -15 4 3 5 11 1 19 -7 21 -12 19 -10 -4z"/>
<path d="M3060 1480 c-9 -6 -10 -10 -3 -10 6 0 15 5 18 10 8 12 4 12 -15 0z"/>
<path d="M3160 1440 c-9 -6 -10 -10 -3 -10 6 0 15 5 18 10 8 12 4 12 -15 0z"/>
<path d="M3126 1378 c3 -5 10 -6 15 -3 13 9 11 12 -6 12 -8 0 -12 -4 -9 -9z"/>
<path d="M2510 6360 c0 -5 5 -10 11 -10 5 0 7 5 4 10 -3 6 -8 10 -11 10 -2 0
-4 -4 -4 -10z"/>
<path d="M1839 5673 c-13 -16 -12 -17 4 -4 9 7 17 15 17 17 0 8 -8 3 -21 -13z"/>
<path d="M5310 4480 c0 -5 5 -10 11 -10 5 0 7 5 4 10 -3 6 -8 10 -11 10 -2 0
-4 -4 -4 -10z"/>
<path d="M5296 3993 c-6 -14 -5 -15 5 -6 7 7 10 15 7 18 -3 3 -9 -2 -12 -12z"/>
<path d="M6069 2963 c-13 -16 -12 -17 4 -4 16 13 21 21 13 21 -2 0 -10 -8 -17
-17z"/>
<path d="M6034 2760 c0 -13 4 -16 10 -10 7 7 7 13 0 20 -6 6 -10 3 -10 -10z"/>
<path d="M1596 438 c3 -5 10 -6 15 -3 13 9 11 12 -6 12 -8 0 -12 -4 -9 -9z"/>
</g>
</svg>
